<?xml version="1.0" encoding="UTF-8" standalone="no"?>
<!DOCTYPE svg PUBLIC "-//W3C//DTD SVG 1.1//EN"
 "http://www.w3.org/Graphics/SVG/1.1/DTD/svg11.dtd">
<!-- Generated by graphviz version 9.0.0 (20230911.1827)
 -->
<!-- Pages: 1 -->
<svg width="224pt" height="188pt"
 viewBox="0.00 0.00 224.12 188.00" xmlns="http://www.w3.org/2000/svg" xmlns:xlink="http://www.w3.org/1999/xlink">
<g id="graph0" class="graph" transform="scale(1 1) rotate(0) translate(4 184)">
<polygon fill="white" stroke="none" points="-4,4 -4,-184 220.12,-184 220.12,4 -4,4"/>
<!-- alp&#45;1 -->
<g id="node1" class="node">
<title>alp&#45;1</title>
<ellipse fill="none" stroke="black" cx="58.86" cy="-90" rx="29.86" ry="18"/>
<text text-anchor="middle" x="58.86" y="-84.95" font-family="Times,serif" font-size="14.00">alp&#45;1</text>
</g>
<!-- alp&#45;2 -->
<g id="node2" class="node">
<title>alp&#45;2</title>
<ellipse fill="none" stroke="black" cx="29.86" cy="-18" rx="29.86" ry="18"/>
<text text-anchor="middle" x="29.86" y="-12.95" font-family="Times,serif" font-size="14.00">alp&#45;2</text>
</g>
<!-- alp&#45;1&#45;&gt;alp&#45;2 -->
<g id="edge1" class="edge">
<title>alp&#45;1&#45;&gt;alp&#45;2</title>
<path fill="none" stroke="black" d="M46.51,-73.12C42.43,-65.4 38.2,-55.9 34.84,-47.02"/>
<polygon fill="black" stroke="black" points="38.19,-46.02 31.6,-37.72 31.58,-48.32 38.19,-46.02"/>
</g>
<!-- alp&#45;2&#45;&gt;alp&#45;1 -->
<g id="edge2" class="edge">
<title>alp&#45;2&#45;&gt;alp&#45;1</title>
<path fill="none" stroke="black" d="M42.08,-34.67C46.19,-42.4 50.45,-51.96 53.84,-60.9"/>
<polygon fill="black" stroke="black" points="50.51,-61.97 57.11,-70.27 57.12,-59.67 50.51,-61.97"/>
</g>
<!-- alp&#45;exposed -->
<g id="node3" class="node">
<title>alp&#45;exposed</title>
<ellipse fill="none" stroke="black" cx="87.86" cy="-162" rx="55.45" ry="18"/>
<text text-anchor="middle" x="87.86" y="-156.95" font-family="Times,serif" font-size="14.00">alp&#45;exposed</text>
</g>
<!-- alp&#45;exposed&#45;&gt;alp&#45;1 -->
<g id="edge4" class="edge">
<title>alp&#45;exposed&#45;&gt;alp&#45;1</title>
<path fill="none" stroke="black" d="M80.69,-143.7C77.48,-135.95 73.62,-126.64 70.05,-118.02"/>
<polygon fill="black" stroke="black" points="73.38,-116.92 66.32,-109.02 66.92,-119.6 73.38,-116.92"/>
</g>
<!-- 142.250.183.78 -->
<g id="node4" class="node">
<title>142.250.183.78</title>
<ellipse fill="none" stroke="black" cx="146.86" cy="-18" rx="69.26" ry="18"/>
<text text-anchor="middle" x="146.86" y="-12.95" font-family="Times,serif" font-size="14.00">142.250.183.78</text>
</g>
<!-- alp&#45;exposed&#45;&gt;142.250.183.78 -->
<g id="edge3" class="edge">
<title>alp&#45;exposed&#45;&gt;142.250.183.78</title>
<path fill="none" stroke="black" d="M94.97,-143.87C104.98,-119.78 123.34,-75.6 135.32,-46.77"/>
<polygon fill="black" stroke="black" points="138.53,-48.16 139.13,-37.59 132.06,-45.48 138.53,-48.16"/>
</g>
</g>
</svg>
